name Walk1.mot
datacolumns 19
datarows 22
range 2.56000000 2.66500000
endheader

                time	   L_ground_force_vx	   L_ground_force_vy	   L_ground_force_vz	   L_ground_force_px	   L_ground_force_py	   L_ground_force_pz	   R_ground_force_vx	   R_ground_force_vy	   R_ground_force_vz	   R_ground_force_px	   R_ground_force_py	   R_ground_force_pz	   L_ground_torque_x	   L_ground_torque_y	   L_ground_torque_z	   R_ground_torque_x	   R_ground_torque_y	   R_ground_torque_z	
          2.56000000	          0.00000000	          0.00000000	         -0.00000000	         -0.00000000	          0.00000000	         -0.00000000	         -0.79109002	         -0.17486002	          0.57040701	          0.05100238	          0.00000000	          0.02098681	          0.00000000	          0.00000000	          0.00000000	          0.00000000	         -0.04486710	          0.00000000	
          2.56500000	          0.00000000	          0.00000000	         -0.00000000	         -0.00000000	          0.00000000	         -0.00000000	         -1.67751119	         -3.50535550	          0.37796590	          0.03375753	          0.00000000	          0.01369330	          0.00000000	          0.00000000	          0.00000000	          0.00000000	         -0.02725211	          0.00000000	
          2.57000000	          0.00000000	          0.00000000	         -0.00000000	         -0.00000000	          0.00000000	         -0.00000000	         -2.11328507	         -5.36390650	          0.22466462	          0.02002894	          0.00000000	          0.00793314	          0.00000000	          0.00000000	          0.00000000	          0.00000000	         -0.01380065	          0.00000000	
          2.57500000	         -0.00000000	          0.00000000	         -0.00000000	         -0.00000000	          0.00000000	         -0.00000000	         -2.22560312	         -6.13153910	          0.10858722	          0.00964100	          0.00000000	          0.00361185	          0.00000000	          0.00000000	          0.00000000	          0.00000000	         -0.00408302	          0.00000000	
          2.58000000	         -0.00000000	         -0.00000000	         -0.00000000	         -0.00000000	          0.00000000	         -0.00000000	         -2.12161221	         -6.13887642	          0.02556110	          0.00221694	          0.00000000	          0.00055503	          0.00000000	          0.00000000	          0.00000000	          0.00000000	          0.00247162	          0.00000000	
          2.58500000	         -0.00000000	         -0.00000000	         -0.00000000	         -0.00000000	          0.00000000	         -0.00000000	         -1.88713098	         -5.65807080	         -0.02970352	         -0.00271930	          0.00000000	         -0.00144914	          0.00000000	          0.00000000	          0.00000000	          0.00000000	          0.00647952	          0.00000000	
          2.59000000	         -0.00000000	         -0.00000000	         -0.00000000	         -0.00000000	          0.00000000	         -0.00000000	         -1.58751347	         -4.90225448	         -0.06279446	         -0.00566976	          0.00000000	         -0.00261977	          0.00000000	          0.00000000	          0.00000000	          0.00000000	          0.00853725	          0.00000000	
          2.59500000	         -0.00000000	         -0.00000000	         -0.00000000	         -0.00000000	          0.00000000	         -0.00000000	         -1.26982144	         -4.02985506	         -0.07904876	         -0.00711342	          0.00000000	         -0.00316328	          0.00000000	          0.00000000	          0.00000000	          0.00000000	          0.00918164	          0.00000000	
          2.60000000	         -0.00000000	         -0.00000000	         -0.00000000	          0.00000000	          0.00000000	          0.00000000	         -0.96566418	         -3.15168940	         -0.08322052	         -0.00747662	          0.00000000	         -0.00326164	          0.00000000	          0.00000000	          0.00000000	          0.00000000	          0.00886872	          0.00000000	
          2.60500000	         -0.00000000	         -0.00000000	         -0.00000000	          0.00000000	          0.00000000	          0.00000000	         -0.69424166	         -2.33927826	         -0.07931406	         -0.00711823	          0.00000000	         -0.00306677	          0.00000000	          0.00000000	          0.00000000	          0.00000000	          0.00796664	          0.00000000	
          2.61000000	         -0.00000000	         -0.00000000	          0.00000000	          0.00000000	          0.00000000	          0.00000000	         -0.46527753	         -1.63328610	         -0.07053613	         -0.00632543	          0.00000000	         -0.00269925	          0.00000000	         -0.00000000	          0.00000000	          0.00000000	          0.00675809	          0.00000000	
          2.61500000	         -0.00000000	         -0.00000000	          0.00000000	          0.00000000	          0.00000000	          0.00000000	         -0.28164944	         -1.05137383	         -0.05932847	         -0.00531676	          0.00000000	         -0.00225009	          0.00000000	         -0.00000000	          0.00000000	          0.00000000	          0.00544858	          0.00000000	
          2.62000000	         -0.00000000	         -0.00000000	          0.00000000	          0.00000000	          0.00000000	          0.00000000	         -0.14161725	         -0.59505380	         -0.04744904	         -0.00424943	          0.00000000	         -0.00178410	          0.00000000	         -0.00000000	          0.00000000	          0.00000000	          0.00417791	          0.00000000	
          2.62500000	         -0.00000000	         -0.00000000	          0.00000000	          0.00000000	          0.00000000	          0.00000000	         -0.04061710	         -0.25536305	         -0.03607835	         -0.00322889	          0.00000000	         -0.00134417	          0.00000000	         -0.00000000	          0.00000000	          0.00000000	          0.00303263	          0.00000000	
          2.63000000	         -0.00000000	         -0.00000000	          0.00000000	          0.00000000	          0.00000000	          0.00000000	          0.02736466	         -0.01732982	         -0.02593319	         -0.00231907	          0.00000000	         -0.00095574	          0.00000000	         -0.00000000	          0.00000000	          0.00000000	          0.00205833	          0.00000000	
          2.63500000	         -0.00000000	         -0.00000000	          0.00000000	          0.00000000	          0.00000000	          0.00000000	          0.06879584	          0.13668686	         -0.01737629	         -0.00155221	          0.00000000	         -0.00063106	          0.00000000	         -0.00000000	          0.00000000	          0.00000000	          0.00127075	          0.00000000	
          2.64000000	         -0.00000000	         -0.00000000	          0.00000000	          0.00000000	          0.00000000	          0.00000000	          0.08992392	          0.22464450	         -0.01051466	         -0.00093768	          0.00000000	         -0.00037294	          0.00000000	         -0.00000000	          0.00000000	          0.00000000	          0.00066519	          0.00000000	
          2.64500000	          0.00000000	         -0.00000000	          0.00000000	          0.00000000	          0.00000000	          0.00000000	          0.09636106	          0.26328336	         -0.00528285	         -0.00046943	          0.00000000	         -0.00017792	          0.00000000	         -0.00000000	          0.00000000	          0.00000000	          0.00022424	          0.00000000	
          2.65000000	          0.00000000	          0.00000000	          0.00000000	          0.00000000	          0.00000000	          0.00000000	          0.09286808	          0.26723918	         -0.00150998	         -0.00013203	          0.00000000	         -0.00003879	          0.00000000	         -0.00000000	          0.00000000	          0.00000000	         -0.00007626	          0.00000000	
          2.65500000	          0.00000000	          0.00000000	          0.00000000	          0.00000000	          0.00000000	          0.00000000	          0.08328336	          0.24864059	          0.00102891	          0.00009478	          0.00000000	          0.00005351	          0.00000000	         -0.00000000	          0.00000000	          0.00000000	         -0.00026294	          0.00000000	
          2.66000000	          0.00000000	          0.00000000	          0.00000000	          0.00000000	          0.00000000	          0.00000000	          0.07055015	          0.21704921	          0.00257568	          0.00023274	          0.00000000	          0.00010846	          0.00000000	         -0.00000000	          0.00000000	          0.00000000	         -0.00036185	          0.00000000	
          2.66500000	          0.00000000	          0.00000000	          0.00000000	          0.00000000	          0.00000000	          0.00000000	          0.05680493	          0.17962430	          0.00336388	          0.00030280	          0.00000000	          0.00013512	          0.00000000	         -0.00000000	          0.00000000	          0.00000000	         -0.00039667	          0.00000000	
